<?xml version="1.0" encoding="UTF-8"?>
<svg id="Layer_1" data-name="Layer 1" xmlns="http://www.w3.org/2000/svg" viewBox="0 0 1000 1000">
  <defs>
    <style>
      .cls-1 {
        fill: none;
      }

      .cls-2 {
        fill: #fff;
      }
    </style>
  </defs>
  <rect width="1000" height="1000" rx="200" ry="200"/>
  <rect class="cls-1" x="93.14" y="100.03" width="800" height="800"/>
  <polygon class="cls-2" points="293.25 680.78 477.38 900.03 517.84 835.86 578.07 736.66 740 796.91 740 754.4 528.51 677.55 528.43 677.44 528.4 677.5 528.27 677.46 528.35 677.57 463.11 778.48 365.68 663.42 293.25 680.78"/>
  <polygon class="cls-2" points="247.6 100.78 247.6 519.7 338.51 627.95 338.51 366.85 493.86 574.38 493.86 574.61 493.94 574.5 494.02 574.61 494.02 574.38 649.36 366.85 649.36 629.01 740.26 608.13 740.26 379.04 630.56 249.44 493.94 437.62 345.33 232.96 247.6 100.78"/>
</svg>